<svg aria-hidden="true" style="position: absolute; width: 0; height: 0; overflow: hidden;" version="1.1" xmlns="http://www.w3.org/2000/svg" xmlns:xlink="http://www.w3.org/1999/xlink">
<defs>
<symbol id="icon-private24" viewBox="0 0 32 32">
<path fill="#89af39" style="fill: var(--color1, #89af39)" d="M9.264 20.661h-0.57v-2.016h2.046v2.016h-0.57v-1.622h-0.906v1.622zM11.514 19.931c0-0.409 0.248-0.482 0.409-0.482s0.409 0.088 0.409 0.482c0 0.248-0.102 0.497-0.409 0.497-0.307-0.015-0.409-0.248-0.409-0.497zM11.017 19.2v1.987h0.526v-0.687c0.175 0.19 0.468 0.205 0.526 0.205 0.497 0 0.804-0.321 0.804-0.774 0-0.482-0.307-0.789-0.789-0.789-0.117 0-0.365 0.015-0.57 0.234h-0.015v-0.175h-0.482zM14.174 20.486c-0.19 0.175-0.38 0.234-0.584 0.234-0.57 0-0.584-0.424-0.584-0.599v-0.906h0.526v0.848c0 0.292 0.102 0.38 0.292 0.38 0.336 0 0.351-0.292 0.351-0.395v-0.818h0.526v1.461h-0.526v-0.205zM15.445 19.492h0.278c0.146 0 0.278 0.029 0.278 0.146 0 0.131-0.205 0.131-0.292 0.131h-0.278v-0.278h0.015zM14.919 19.2v1.461h1.037c0.38 0 0.643-0.073 0.643-0.38 0-0.234-0.131-0.336-0.424-0.38v-0.015c0.19-0.029 0.351-0.146 0.351-0.336 0-0.351-0.409-0.351-0.57-0.351h-1.037zM15.445 20.047h0.321c0.248 0 0.292 0.073 0.292 0.175 0 0.058-0.029 0.146-0.292 0.146h-0.321v-0.321zM17.87 20.047c0 0.292-0.248 0.365-0.38 0.365-0.102 0-0.263-0.029-0.263-0.175 0-0.161 0.19-0.19 0.307-0.205 0.205-0.029 0.19-0.015 0.351-0.073v0.088h-0.015zM17.271 19.668c0-0.219 0.234-0.234 0.321-0.234 0.058 0 0.278 0 0.278 0.19v0.044c-0.015 0.146-0.146 0.117-0.541 0.161-0.321 0.044-0.658 0.117-0.658 0.453 0 0.117 0.058 0.424 0.614 0.424 0.219 0 0.453-0.058 0.584-0.205h0.015l0.044 0.146h0.555v-0.029c-0.102-0.015-0.102-0.117-0.102-0.278l0.015-0.672c0-0.175-0.015-0.541-0.804-0.541-0.19 0-0.804 0.015-0.818 0.526h0.497v0.015zM18.455 19.492v-0.292h1.68v0.292h-0.584v1.169h-0.526v-1.169h-0.57zM20.793 19.784h0.468c0.131 0 0.409 0.015 0.409 0.248 0 0.19-0.205 0.234-0.424 0.234h-0.468v-0.482h0.015zM20.793 19.039h1.3v-0.395h-1.87v2.002h1.154c0.555 0 0.921-0.19 0.921-0.599 0-0.643-0.716-0.658-0.921-0.658h-0.584v-0.351zM23.584 20.047c0 0.292-0.248 0.365-0.38 0.365-0.102 0-0.263-0.029-0.263-0.175 0-0.161 0.19-0.19 0.307-0.205 0.205-0.029 0.19-0.015 0.351-0.073v0.088h-0.015zM22.97 19.668c0-0.219 0.234-0.234 0.321-0.234 0.058 0 0.278 0 0.278 0.19v0.044c-0.015 0.146-0.146 0.117-0.541 0.161-0.321 0.044-0.658 0.117-0.658 0.453 0 0.117 0.058 0.424 0.614 0.424 0.219 0 0.453-0.058 0.584-0.205h0.015l0.044 0.146h0.555v-0.029c-0.102-0.015-0.102-0.117-0.102-0.278l0.015-0.672c0-0.175-0.015-0.541-0.804-0.541-0.19 0-0.804 0.015-0.818 0.526h0.497v0.015zM24.855 20.661h-0.526v-1.461h0.526v0.541h0.628v-0.541h0.511v1.461h-0.511v-0.628h-0.628v0.628zM27.324 19.2h0.584l-0.731 0.687 0.76 0.774h-0.614l-0.57-0.643v0.643h-0.526v-1.461h0.526v0.584l0.57-0.584z"></path>
<path fill="#000" style="fill: var(--color2, #000)" d="M4.895 20.661h1.315v-1.315h-1.315v1.315z"></path>
<path fill="#89af39" style="fill: var(--color1, #89af39)" d="M4.895 17.315v1.637h0.351c0.906 0 1.374 0.468 1.374 1.374v0.351h1.637v-3.361h-3.361zM7.554 18.002v1.973h-0.263c-0.117-0.979-0.731-1.578-1.695-1.695v-0.263c0.438-0.015 1.52-0.015 1.958-0.015z"></path>
<path fill="#222221" style="fill: var(--color3, #222221)" d="M2.25 14.889h1.856v-1.856h-1.856v1.856z"></path>
<path fill="#89af39" style="fill: var(--color1, #89af39)" d="M8.416 14.889h-0.804v-2.849h2.893v2.849h-0.804v-2.294h-1.286v2.294zM11.602 13.852c0-0.57 0.351-0.687 0.584-0.687 0.219 0 0.57 0.117 0.57 0.687 0 0.351-0.146 0.701-0.57 0.701-0.438 0-0.584-0.351-0.584-0.701zM10.9 12.829v2.805h0.745v-0.964c0.248 0.263 0.658 0.292 0.745 0.292 0.701 0 1.14-0.453 1.14-1.096 0-0.687-0.424-1.111-1.125-1.111-0.175 0-0.511 0.029-0.804 0.321h-0.015v-0.248h-0.687zM15.357 14.641c-0.278 0.248-0.541 0.321-0.833 0.321-0.804 0-0.833-0.599-0.833-0.848v-1.286h0.745v1.198c0 0.409 0.146 0.526 0.409 0.526 0.468 0 0.497-0.424 0.497-0.57v-1.154h0.745v2.060h-0.745v-0.248h0.015zM17.154 13.238h0.395c0.205 0 0.395 0.029 0.395 0.205 0 0.19-0.278 0.19-0.409 0.19h-0.38v-0.395zM16.424 12.829v2.060h1.476c0.541 0 0.906-0.102 0.906-0.526 0-0.321-0.175-0.468-0.584-0.541v-0.015c0.263-0.029 0.497-0.205 0.497-0.482 0-0.497-0.584-0.497-0.818-0.497h-1.476zM17.154 14.013h0.453c0.351 0 0.424 0.102 0.424 0.248 0 0.088-0.044 0.205-0.409 0.205h-0.468v-0.453zM20.588 14.027c0 0.409-0.365 0.511-0.541 0.511-0.131 0-0.38-0.044-0.38-0.234 0-0.234 0.278-0.278 0.438-0.292 0.292-0.044 0.263-0.029 0.482-0.102v0.117zM19.726 13.487c0-0.307 0.321-0.321 0.453-0.321 0.088 0 0.395 0 0.395 0.278v0.058c-0.015 0.205-0.205 0.161-0.76 0.234-0.453 0.058-0.921 0.175-0.921 0.643 0 0.175 0.073 0.599 0.862 0.599 0.307 0 0.628-0.073 0.833-0.278h0.015l0.058 0.205h0.774v-0.029c-0.146-0.029-0.146-0.161-0.146-0.395l0.015-0.935c0-0.234-0.015-0.774-1.14-0.774-0.263 0-1.125 0.029-1.169 0.745h0.731v-0.029zM21.406 13.238v-0.409h2.367v0.409h-0.818v1.651h-0.745v-1.651h-0.804zM2.25 10.155v2.309h0.497c1.286 0 1.943 0.658 1.943 1.943v0.497h2.309v-4.749h-4.749zM6.005 11.134v2.776h-0.38c-0.161-1.374-1.023-2.236-2.396-2.396v-0.38h2.776z"></path>
<path fill="#000" style="fill: var(--color2, #000)" d="M26.243 14.247v0.584h-2.192c0.029-0.219 0.102-0.424 0.219-0.628s0.351-0.453 0.701-0.789c0.278-0.263 0.453-0.438 0.526-0.541 0.088-0.132 0.131-0.263 0.131-0.38 0-0.146-0.044-0.248-0.117-0.321s-0.175-0.117-0.307-0.117c-0.131 0-0.234 0.044-0.307 0.117s-0.117 0.205-0.131 0.395l-0.628-0.058c0.044-0.351 0.161-0.599 0.351-0.745s0.438-0.219 0.731-0.219c0.321 0 0.57 0.088 0.76 0.263s0.278 0.395 0.278 0.643c0 0.146-0.029 0.292-0.073 0.424-0.058 0.132-0.131 0.278-0.248 0.424-0.073 0.102-0.219 0.234-0.409 0.424-0.205 0.175-0.321 0.307-0.38 0.365s-0.102 0.117-0.131 0.175h1.227zM27.894 14.831v-0.658h-1.344v-0.555l1.417-2.075h0.526v2.075h0.409v0.555h-0.409v0.658h-0.599zM27.894 13.618v-1.111l-0.745 1.111h0.745z"></path>
</symbol>
<symbol id="icon-paypal" viewBox="0 0 32 32">
<path d="M29.647 5.581c1.3 2.384 0.871 5.194 0.359 6.856-2.77 9.048-15.269 8.556-17.077 8.556-1.806 0-2.227 1.684-2.227 1.684l-1.35 5.891c-0.368 2.068-2.244 1.965-2.244 1.965h-4.068c-0.102 0-0.198-0.007-0.285-0.020-0.020 0.379 0.034 1.486 1.388 1.486h4.067s1.875 0.105 2.245-1.963l1.349-5.891s0.422-1.684 2.228-1.684c1.805 0 14.307 0.492 17.079-8.556 0.618-2.022 1.121-5.739-1.462-8.323z"></path>
<path d="M8.095 27.284l1.35-5.892s0.419-1.681 2.228-1.681c1.805 0 14.306 0.489 17.076-8.557 1.014-3.307 1.717-11.154-10.905-11.154h-9.117s-1.895-0.088-2.363 1.927l-5.957 25.71s-0.256 1.611 1.374 1.611h4.070s1.875 0.106 2.244-1.964zM11.531 12.329l1.211-5.224s0.386-1.421 1.631-1.631c1.245-0.211 3.365 0.038 3.91 0.14 3.541 0.665 2.788 4.015 2.788 4.015-0.701 5.171-8.75 4.454-8.75 4.454-1.262-0.456-0.789-1.754-0.789-1.754z"></path>
</symbol>
<symbol id="icon-webmoney" viewBox="0 0 32 32">
<path d="M5.151 15.216c-0.721 0-1.091 0.528-1.091 1.259 0 0.76 0.332 1.26 1.139 1.26 0.346 0 0.635-0.096 0.851-0.223v-0.364c-0.264 0.157-0.505 0.25-0.764 0.25-0.495 0-0.731-0.254-0.731-0.832h1.567v-0.176c0.001-0.785-0.37-1.174-0.971-1.174zM4.565 16.244c0.053-0.48 0.279-0.706 0.572-0.706 0.26 0 0.505 0.201 0.529 0.706h-1.101zM7.71 15.216c-0.26 0-0.505 0.101-0.65 0.178v-1.37l-0.5 0.12v3.356c0.289 0.153 0.683 0.235 0.938 0.235 0.697 0 1.13-0.438 1.13-1.338 0-0.768-0.322-1.181-0.918-1.181zM7.498 17.398c-0.121 0-0.288-0.009-0.442-0.076v-1.573c0.192-0.106 0.332-0.158 0.524-0.158 0.322 0 0.544 0.198 0.544 0.807 0 0.78-0.269 1-0.626 1zM17.663 15.937v1.74h-0.5v-1.63c0-0.38-0.187-0.447-0.434-0.447-0.192 0-0.438 0.087-0.586 0.173v1.904h-0.499v-2.106c0.216-0.13 0.673-0.355 1.226-0.355 0.576 0.001 0.793 0.226 0.793 0.722zM11.869 14.268h0.596v3.409h-0.519v-2.472h-0.043l-0.981 2.472h-0.307l-0.981-2.414h-0.043v2.414h-0.432v-3.409h0.581l1.077 2.687h0.024l1.028-2.687zM14.090 15.216c-0.635 0-1.097 0.418-1.097 1.259 0 0.822 0.438 1.26 1.097 1.26s1.097-0.438 1.097-1.26c0-0.842-0.462-1.259-1.097-1.259zM14.090 17.398c-0.341 0-0.592-0.263-0.592-0.923 0-0.649 0.275-0.923 0.592-0.923 0.327 0 0.592 0.274 0.592 0.923 0 0.66-0.25 0.923-0.592 0.923zM29.546 18.331l0.848 0.969c-0.161 0.126-0.342 0.248-0.532 0.356l-0.022 0.012c-0.595 0.345-1.309 0.549-2.071 0.549-0.002 0-0.004 0-0.006 0h0c-2.321 0-4.214-1.893-4.214-4.213s1.893-4.214 4.214-4.214c0.002 0 0.003 0 0.005 0 0.775 0 1.5 0.21 2.123 0.576l-0.020-0.011-0.388 0.347-0.581-0.602-0.984 0.878-0.583-0.638-1.834 1.652 1.175 1.295-0.463 0.405 1.158 1.297-0.46 0.405 1.654 1.841 0.98-0.903zM31.558 15.716l0.45 0.501-0.5 0.451-0.451-0.501 0.501-0.451zM22.042 15.296h0.515l-0.869 2.405c-0.241 0.664-0.534 1.010-1.086 1.010v-0.393c0.327 0 0.529-0.259 0.644-0.615l-0.923-2.405h0.529l0.615 1.77h0.029l0.546-1.771zM19.201 15.216c-0.722 0-1.091 0.528-1.091 1.259 0 0.76 0.332 1.26 1.139 1.26 0.346 0 0.633-0.096 0.85-0.223v-0.364c-0.264 0.157-0.504 0.25-0.764 0.25-0.495 0-0.731-0.254-0.731-0.832h1.567v-0.176c0.001-0.785-0.37-1.174-0.97-1.174zM18.614 16.244c0.054-0.48 0.28-0.706 0.574-0.706 0.259 0 0.505 0.201 0.529 0.706h-1.102zM30.864 17.482l0.677 0.752-0.752 0.677-0.678-0.752 0.753-0.677zM28.868 12.864l0.677 0.752-0.752 0.677-0.677-0.752 0.752-0.677zM27.279 13.124l0.902 1.002-1.002 0.902-0.902-1.002 1.002-0.902zM29.486 15.804l-0.677-0.751 0.751-0.677 0.678 0.751-0.752 0.677zM30.416 14.679l0.5-0.451 0.45 0.501-0.499 0.451-0.451-0.501zM3.357 14.268h0.563l-0.78 3.409h-0.52l-0.654-2.4h-0.034l-0.635 2.4h-0.52l-0.779-3.409h0.539l0.538 2.543h0.034l0.625-2.543h0.428l0.669 2.543h0.034l0.491-2.543zM30.129 17.391l-0.678-0.751 0.752-0.678 0.678 0.751-0.752 0.678zM29.776 13.19l0.501-0.451 0.45 0.501-0.5 0.451-0.451-0.501zM27.897 16.739l-0.902-1.002 1.002-0.903 0.902 1.002-1.002 0.903zM28.61 18.472l-0.901-1.002 1.002-0.902 0.902 1.002-1.002 0.902z"></path>
</symbol>
<symbol id="icon-terminale" viewBox="0 0 32 32">
<path d="M24.527 32h-17.053c-0.26 0-0.471-0.211-0.471-0.471v0-29.316c0-1.22 0.992-2.213 2.213-2.213h13.57c1.22 0 2.213 0.993 2.213 2.213v29.316c-0 0.26-0.211 0.471-0.471 0.471v0zM7.944 31.058h16.111v-9.053h-16.111v9.053zM7.944 21.063h16.111v-18.85c0-0.701-0.57-1.271-1.271-1.271h-13.57c-0.701 0-1.271 0.57-1.271 1.271v18.85zM14.692 19.972h-0.246c-0.26 0-0.471-0.211-0.471-0.471s0.211-0.471 0.471-0.471v0h0.246c0.26 0 0.471 0.211 0.471 0.471s-0.211 0.471-0.471 0.471v0zM12.674 19.972h-0.246c-0.26 0-0.471-0.211-0.471-0.471s0.211-0.471 0.471-0.471v0h0.246c0.26 0 0.471 0.211 0.471 0.471s-0.211 0.471-0.471 0.471v0zM10.655 19.972h-0.246c-0.26 0-0.471-0.211-0.471-0.471s0.211-0.471 0.471-0.471v0h0.246c0.26 0 0.471 0.211 0.471 0.471s-0.211 0.471-0.471 0.471v0zM21.591 19.313h-3.644c-0.26 0-0.471-0.211-0.471-0.471v0-2.348c0-0.26 0.211-0.471 0.471-0.471v0h3.644c0.26 0 0.471 0.211 0.471 0.471v0 2.348c0 0.26-0.211 0.471-0.471 0.471v0zM18.417 18.371h2.702v-1.406h-2.702v1.406zM14.692 18.469h-0.246c-0.26 0-0.471-0.211-0.471-0.471s0.211-0.471 0.471-0.471v0h0.246c0.26 0 0.471 0.211 0.471 0.471s-0.211 0.471-0.471 0.471v0zM12.674 18.469h-0.246c-0.26 0-0.471-0.211-0.471-0.471s0.211-0.471 0.471-0.471v0h0.246c0.26 0 0.471 0.211 0.471 0.471s-0.211 0.471-0.471 0.471v0zM10.655 18.469h-0.246c-0.26 0-0.471-0.211-0.471-0.471s0.211-0.471 0.471-0.471v0h0.246c0.26 0 0.471 0.211 0.471 0.471s-0.211 0.471-0.471 0.471v0zM14.692 16.965h-0.246c-0.26 0-0.471-0.211-0.471-0.471s0.211-0.471 0.471-0.471v0h0.246c0.26 0 0.471 0.211 0.471 0.471s-0.211 0.471-0.471 0.471v0zM12.674 16.965h-0.246c-0.26 0-0.471-0.211-0.471-0.471s0.211-0.471 0.471-0.471v0h0.246c0.26 0 0.471 0.211 0.471 0.471s-0.211 0.471-0.471 0.471v0zM10.655 16.965h-0.246c-0.26 0-0.471-0.211-0.471-0.471s0.211-0.471 0.471-0.471v0h0.246c0.26 0 0.471 0.211 0.471 0.471s-0.211 0.471-0.471 0.471v0zM21.591 14.823h-11.181c-0.26 0-0.471-0.211-0.471-0.471v0-10.71c0-0.26 0.211-0.471 0.471-0.471v0h11.181c0.26 0 0.471 0.211 0.471 0.471v0 10.71c0 0.26-0.211 0.471-0.471 0.471v0zM10.881 13.881h10.239v-9.768h-10.239v9.768z"></path>
</symbol>
<symbol id="icon-visa" viewBox="0 0 32 32">
<path fill="#f9f9f9" style="fill: var(--color4, #f9f9f9)" d="M25.751 23.273h-19.503c-0.813-0-1.472-0.66-1.472-1.473 0-0 0-0 0-0.001v0-11.6c0-0.813 0.659-1.473 1.473-1.473h19.503c0.813 0 1.473 0.66 1.473 1.473v11.6c0 0.813-0.66 1.473-1.473 1.473z"></path>
<path fill="#383838" style="fill: var(--color5, #383838)" d="M4.776 12.507h22.448v2.291h-22.448z"></path>
<path fill="none" stroke="#303030" style="stroke: var(--color6, #303030)" stroke-linejoin="round" stroke-linecap="round" stroke-miterlimit="10" stroke-width="0.5333" d="M25.751 23.273h-19.503c-0.813-0-1.472-0.66-1.472-1.473 0-0 0-0 0-0.001v0-11.6c0-0.813 0.659-1.473 1.473-1.473h19.503c0.813 0 1.473 0.66 1.473 1.473v11.6c0 0.813-0.66 1.473-1.473 1.473zM4.776 12.507h22.292M27.060 14.797h-22.163M6.837 20.581h5.555M6.837 18.792h2.387"></path>
<path fill="#ffc601" style="fill: var(--color7, #ffc601)" d="M25.165 19.35c0 0 0 0 0 0.001 0 1.093-0.886 1.979-1.979 1.979-0.513 0-0.981-0.195-1.333-0.516l0.002 0.001c-0.090-0.082-0.481 0.064-0.653-0.033-0.585-0.333-1.226-0.983-1.226-1.432 0-0.463 0.613-1.195 1.149-1.532 0.095-0.060 0.608 0.187 0.662 0.133 0.358-0.358 0.853-0.579 1.399-0.579 1.093 0 1.979 0.886 1.979 1.979 0 0 0 0 0 0v0z"></path>
<path fill="#303030" style="fill: var(--color6, #303030)" d="M23.225 17.233c-0.548 0-1.046 0.211-1.422 0.555-0.321-0.244-0.727-0.391-1.167-0.391h-0c-1.079 0-1.953 0.875-1.953 1.953s0.875 1.953 1.953 1.953v0c0.438 0 0.841-0.147 1.167-0.391 0.373 0.343 0.873 0.554 1.423 0.555h0c1.168-0.002 2.115-0.949 2.117-2.117v-0c-0.002-1.168-0.948-2.115-2.117-2.117h-0zM23.225 21.14c-0.439 0-0.839-0.16-1.15-0.423l-0.022-0.025h-0.751v-0.327h1.001c0.052-0.085 0.099-0.173 0.137-0.267h-1.403v-0.327h1.505c0.019-0.087 0.032-0.176 0.039-0.267h-1.679v-0.327h1.678c-0.009-0.1-0.024-0.191-0.045-0.28l0.003 0.013h-1.501v-0.327h1.396c-0.045-0.104-0.093-0.191-0.146-0.274l0.005 0.008h-0.99v-0.327h0.649l0.074 0.035c0.315-0.289 0.737-0.466 1.2-0.466h0c0.988 0.001 1.789 0.802 1.79 1.79v0c-0.001 0.988-0.802 1.789-1.79 1.79h-0z"></path>
<path fill="#f43735" style="fill: var(--color8, #f43735)" d="M22.215 19.35c0 0.858-0.696 1.554-1.554 1.554s-1.554-0.696-1.554-1.554c0-0.858 0.696-1.554 1.554-1.554s1.554 0.696 1.554 1.554z"></path>
</symbol>
</defs>
</svg>
