<svg aria-hidden="true" style="position: absolute; width: 0; height: 0; overflow: hidden;" version="1.1" xmlns="http://www.w3.org/2000/svg" xmlns:xlink="http://www.w3.org/1999/xlink">
<defs>
<symbol id="icon-hand" viewBox="0 0 32 32">
<path d="M14.88 0.8c-0.448 0.416-0.8 1.056-0.8 1.408 0 0.544-0.16 0.608-1.088 0.448-0.896-0.128-1.248-0.032-1.92 0.64l-0.832 0.832v7.296l-0.032 7.296-1.408-1.6c-1.248-1.44-1.536-1.6-2.72-1.6-1.088 0-1.504 0.192-2.112 0.896-1.216 1.44-0.992 2.4 1.152 5.248 8 10.528 7.744 10.336 13.344 10.336 4.96 0 6.592-0.704 7.808-3.36 0.544-1.152 0.608-2.272 0.608-11.616 0-8.544-0.096-10.496-0.48-11.264-0.512-1.024-1.44-1.44-2.528-1.152-0.672 0.16-0.768 0.032-0.96-1.088-0.256-1.536-1.312-2.368-2.784-2.176-0.736 0.128-1.184-0.032-1.76-0.608-0.992-0.992-2.464-0.96-3.488 0.064zM17.536 1.664c0.256 0.256 0.384 2.144 0.384 6.4 0 5.792 0.032 6.016 0.64 6.016s0.64-0.256 0.704-5.472c0.096-4.832 0.16-5.536 0.672-5.856 0.384-0.256 0.704-0.256 1.12 0 0.48 0.32 0.544 1.056 0.64 6.496 0.064 5.824 0.096 6.112 0.704 6.112 0.576 0 0.64-0.288 0.704-4.512 0.096-3.904 0.16-4.576 0.672-4.896 0.384-0.256 0.704-0.256 1.12 0 0.48 0.32 0.544 1.248 0.64 10.72 0.064 11.424 0.032 11.776-1.952 13.216-0.8 0.608-1.376 0.672-5.184 0.672-4.096 0-4.288-0.032-5.12-0.8-1.44-1.312-8.8-10.912-8.8-11.456 0-0.704 0.96-1.664 1.632-1.664 0.32 0 1.408 0.96 2.4 2.144 2.88 3.424 2.816 3.552 3.008-6.112 0.128-7.424 0.224-8.32 0.736-8.64 0.384-0.256 0.704-0.256 1.12 0 0.48 0.32 0.544 1.024 0.64 5.536 0.064 4.896 0.128 5.152 0.704 5.152 0.608 0 0.64-0.224 0.64-6.336 0-6.496 0.096-7.104 1.28-7.104 0.288 0 0.672 0.16 0.896 0.384z"></path>
</symbol>
<symbol id="icon-purse" viewBox="0 0 32 32">
<path d="M13.75 4.050c-5.5 0.25-10.5 0.55-11.15 0.7-0.6 0.15-1.35 0.85-1.6 1.55-0.3 0.7-0.5 5.6-0.5 10.95 0 8.15 0.15 9.8 0.8 10.45 0.65 0.7 2.7 0.8 14.9 0.8 10.3 0 14.25-0.15 14.7-0.6s0.6-3.5 0.6-10.7c0-9.3-0.1-10.2-0.9-10.8-0.55-0.35-1.2-1.15-1.55-1.8-0.5-0.9-0.95-1.1-2.95-1-1.3 0-6.85 0.25-12.35 0.45zM28.5 5.25c0 0.65-1.3 0.75-8.65 0.75-4.8 0-10.5-0.15-12.65-0.4l-3.95-0.35 6.75-0.25c14.7-0.6 18.5-0.55 18.5 0.25zM23.65 6.85l6.85 0.3v20.35h-17.5v-3.8c0-5.65-0.050-5.7-6.25-5.7h-5.25v-5.4c0-3 0.15-5.6 0.35-5.75 0.4-0.45 12.95-0.45 21.8 0zM11.9 23.1l0.15 4.4h-10.55v-9.050l10.25 0.3 0.15 4.35z"></path>
<path d="M25.8 22.8c-1.050 1-1 1.5 0.25 2.75 0.9 0.9 1.15 0.95 2.1 0.3 1.3-0.85 1.65-2.15 0.85-3.1s-2.25-0.95-3.2 0.050zM28.4 24.2c-0.2 1.25-1.8 1.7-2.2 0.6-0.4-1.050 0.65-2.3 1.6-1.95 0.4 0.15 0.7 0.75 0.6 1.35z"></path>
</symbol>
<symbol id="icon-heart" viewBox="0 0 32 32">
<path d="M7.36 4.768c-2.208 0.672-4.16 2.336-5.312 4.512-0.96 1.76-0.8 6.016 0.256 8.32 1.632 3.552 4.32 6.208 10.72 10.528l2.976 2.016 3.232-2.208c6.88-4.64 9.664-7.616 10.88-11.68 1.792-5.856-1.312-11.104-6.88-11.68-2.144-0.224-4 0.32-5.792 1.664l-1.44 1.12-1.44-1.12c-2.144-1.6-4.864-2.176-7.2-1.472zM12.672 6.496c1.056 0.544 2.080 1.472 2.816 2.528l0.512 0.704 0.512-0.704c1.536-2.208 3.2-3.072 5.92-3.104 2.848 0 4.832 1.152 6.144 3.68 0.832 1.568 0.896 1.984 0.768 3.904-0.192 3.104-1.376 5.312-4.352 8.256-1.344 1.312-3.936 3.392-5.728 4.608l-3.232 2.208-3.296-2.208c-4.256-2.88-7.872-6.4-9.088-8.928-0.768-1.6-0.928-2.336-0.928-4.352 0-2.144 0.128-2.592 0.96-3.968 1.376-2.24 3.776-3.488 6.272-3.264 0.992 0.096 2.208 0.384 2.72 0.64z"></path>
</symbol>
<symbol id="icon-clothes" viewBox="0 0 32 32">
<path d="M11.9 2.35c-0.75 0.2-0.75 0.35 0.2 1.45 0.6 0.65 1.3 1.2 1.6 1.2s0.15-0.25-0.3-0.55c-0.5-0.25-0.9-0.85-0.9-1.3 0-0.75 0.1-0.75 0.9 0 0.5 0.5 1.15 0.85 1.4 0.85s0.050-0.25-0.45-0.55c-0.45-0.3-0.75-0.7-0.6-1 0.3-0.45-0.35-0.5-1.85-0.1zM18.25 2.45c0.15 0.3-0.15 0.7-0.6 1-0.5 0.3-0.7 0.55-0.45 0.55s0.9-0.35 1.4-0.85c0.8-0.75 0.9-0.75 0.9 0 0 0.45-0.4 1.050-0.85 1.3-0.5 0.3-0.65 0.55-0.35 0.55s1-0.55 1.55-1.2l1.050-1.2-1.050-0.3c-1.55-0.4-1.95-0.35-1.6 0.15zM15.4 2.85c0.3 0.1 0.9 0.1 1.25 0 0.3-0.15 0.050-0.25-0.65-0.25s-0.95 0.1-0.6 0.25zM26.050 5.75c0.95 0.95 1.75 1.75 1.8 1.75 0.45 0-2.1-3-2.7-3.25-0.4-0.15 0 0.55 0.9 1.5zM15.15 5.35c0.45 0.1 1.25 0.1 1.75 0 0.45-0.15 0.050-0.25-0.9-0.25s-1.35 0.1-0.85 0.25zM4.45 6.85c-0.65 0.8-0.6 0.85 0.2 0.2 0.45-0.35 0.85-0.75 0.85-0.85 0-0.4-0.4-0.15-1.050 0.65zM3 9c-0.3 0.55-0.4 1-0.3 1 0.15 0 0.5-0.45 0.8-1s0.4-1 0.3-1c-0.15 0-0.5 0.45-0.8 1zM28.5 9c0.3 0.55 0.65 1 0.8 1 0.1 0 0-0.45-0.3-1s-0.65-1-0.8-1c-0.1 0 0 0.45 0.3 1zM1.55 12.1c-0.5 1.35-0.45 1.7 0.3 2.35 0.6 0.55 0.7 0.55 0.25 0.050-0.8-0.9-0.8-1.9 0-1.1 0.35 0.35 0.85 0.6 1.15 0.6 0.25 0 0.1-0.25-0.4-0.55-0.65-0.4-0.85-0.9-0.65-1.75 0.45-1.75 0-1.45-0.65 0.4zM29.8 11.6c0.2 0.95 0.050 1.45-0.65 1.85-0.5 0.3-0.65 0.55-0.35 0.55 0.25 0 0.75-0.25 1.1-0.6 0.7-0.7 0.8 0.15 0.1 1-0.25 0.35-0.15 0.3 0.3-0.050 0.7-0.65 0.7-0.85 0-2.4-0.6-1.35-0.7-1.45-0.5-0.35zM6.2 14.25c-0.5 0.4-0.7 0.75-0.35 0.75 0.3 0 0.75-0.25 0.9-0.5 0.2-0.3 0.55-0.35 0.85-0.2 0.35 0.2 0.4 0.1 0.2-0.2-0.45-0.75-0.4-0.75-1.6 0.15zM24.2 14.1c-0.2 0.35-0.2 0.5 0.050 0.3 0.2-0.2 0.7-0.15 1.1 0.2 0.35 0.3 0.8 0.4 0.95 0.25s-0.15-0.5-0.75-0.8c-0.75-0.4-1.1-0.4-1.35 0.050zM8.15 18c0 1.8 0.1 2.5 0.2 1.6 0.1-0.85 0.1-2.35 0-3.25-0.1-0.85-0.2-0.15-0.2 1.65zM23.65 18c0 1.8 0.1 2.5 0.2 1.6 0.1-0.85 0.1-2.35 0-3.25-0.1-0.85-0.2-0.15-0.2 1.65zM7.6 23.75c0 0.8 0.1 1.1 0.25 0.6 0.1-0.45 0.1-1.15 0-1.5-0.15-0.3-0.25 0.050-0.25 0.9zM24.1 23.75c0 0.8 0.1 1.1 0.25 0.6 0.1-0.45 0.1-1.15 0-1.5-0.15-0.3-0.25 0.050-0.25 0.9zM7.050 27.3c0 0.6 0.35 1.4 0.85 1.75 0.75 0.6 0.8 0.6 0.3-0.050-0.35-0.4-0.7-1.2-0.85-1.75-0.2-0.95-0.25-0.95-0.3 0.050zM24.55 27.25c0 0.6-0.25 1.3-0.55 1.65-0.25 0.35-0.15 0.3 0.3-0.1 0.45-0.35 0.7-1.1 0.55-1.6-0.2-0.85-0.25-0.85-0.3 0.050zM9.4 29.85c0.35 0.15 0.8 0.1 0.95-0.050 0.2-0.15-0.1-0.3-0.65-0.25-0.55 0-0.7 0.15-0.3 0.3zM21.9 29.85c0.35 0.15 0.8 0.1 0.95-0.050 0.2-0.15-0.1-0.3-0.65-0.25-0.55 0-0.7 0.15-0.3 0.3zM13.65 30.35c1.3 0.1 3.4 0.1 4.75 0 1.3-0.1 0.2-0.15-2.4-0.15s-3.7 0.050-2.35 0.15z"></path>
</symbol>
</defs>
</svg>
